<?xml version="1.0" encoding="UTF-8" standalone="no"?><svg xmlns="http://www.w3.org/2000/svg" xmlns:xlink="http://www.w3.org/1999/xlink" contentStyleType="text/css" height="566px" preserveAspectRatio="none" style="width:768px;height:566px;background:#F9F9F9;" version="1.1" viewBox="0 0 768 566" width="768px" zoomAndPan="magnify"><defs/><g><rect fill="#F9F9F9" height="566" style="stroke:none;stroke-width:1.0;" width="768" x="0" y="0"/><rect fill="none" height="164.1738" rx="3.5" ry="3.5" style="stroke:#393939;stroke-width:1.0;" width="457" x="305.5" y="274.6621"/><line style="stroke:#393939;stroke-width:0.5;stroke-dasharray:5.0,5.0;" x1="23" x2="23" y1="81.4883" y2="485.1465"/><line style="stroke:#393939;stroke-width:0.5;stroke-dasharray:5.0,5.0;" x1="385.5" x2="385.5" y1="81.4883" y2="485.1465"/><line style="stroke:#393939;stroke-width:0.5;stroke-dasharray:5.0,5.0;" x1="685.5" x2="685.5" y1="81.4883" y2="485.1465"/><text fill="#191919" font-family="sans-serif" font-size="14" lengthAdjust="spacing" textLength="31" x="5" y="78.5352">User</text><ellipse cx="23.5" cy="13.5" fill="#191919" rx="8" ry="8" style="stroke:#191919;stroke-width:0.5;"/><path d="M23.5,21.5 L23.5,48.5 M10.5,29.5 L36.5,29.5 M23.5,48.5 L10.5,63.5 M23.5,48.5 L36.5,63.5 " fill="none" style="stroke:#191919;stroke-width:0.5;"/><text fill="#191919" font-family="sans-serif" font-size="14" lengthAdjust="spacing" textLength="31" x="5" y="497.6816">User</text><ellipse cx="23.5" cy="509.1348" fill="#191919" rx="8" ry="8" style="stroke:#191919;stroke-width:0.5;"/><path d="M23.5,517.1348 L23.5,544.1348 M10.5,525.1348 L36.5,525.1348 M23.5,544.1348 L10.5,559.1348 M23.5,544.1348 L36.5,559.1348 " fill="none" style="stroke:#191919;stroke-width:0.5;"/><rect fill="#E55756" height="61.4961" rx="3.5" ry="3.5" style="stroke:#191919;stroke-width:1.5;" width="140" x="315.5" y="18.9922"/><text fill="#F9F9F9" font-family="sans-serif" font-size="18" font-weight="bold" lengthAdjust="spacing" textLength="126" x="322.5" y="43.3945">フロントエンド</text><line style="stroke:#191919;stroke-width:1.0;" x1="315.5" x2="455.5" y1="52.1914" y2="52.1914"/><text fill="#F9F9F9" font-family="monospace" font-size="14" lengthAdjust="spacing" textLength="120" x="325.5" y="70.1865">Served on Flask</text><rect fill="#E55756" height="61.4961" rx="3.5" ry="3.5" style="stroke:#191919;stroke-width:1.5;" width="140" x="315.5" y="484.1465"/><text fill="#F9F9F9" font-family="sans-serif" font-size="18" font-weight="bold" lengthAdjust="spacing" textLength="126" x="322.5" y="508.5488">フロントエンド</text><line style="stroke:#191919;stroke-width:1.0;" x1="315.5" x2="455.5" y1="517.3457" y2="517.3457"/><text fill="#F9F9F9" font-family="monospace" font-size="14" lengthAdjust="spacing" textLength="120" x="325.5" y="535.3408">Served on Flask</text><rect fill="#E55756" height="61.4961" rx="3.5" ry="3.5" style="stroke:#191919;stroke-width:1.5;" width="134" x="618.5" y="18.9922"/><text fill="#F9F9F9" font-family="sans-serif" font-size="18" font-weight="bold" lengthAdjust="spacing" textLength="108" x="631.5" y="43.3945">バックエンド</text><line style="stroke:#191919;stroke-width:1.0;" x1="618.5" x2="752.5" y1="52.1914" y2="52.1914"/><text fill="#F9F9F9" font-family="monospace" font-size="14" lengthAdjust="spacing" textLength="120" x="625.5" y="70.1865">Served on Flask</text><rect fill="#E55756" height="61.4961" rx="3.5" ry="3.5" style="stroke:#191919;stroke-width:1.5;" width="134" x="618.5" y="484.1465"/><text fill="#F9F9F9" font-family="sans-serif" font-size="18" font-weight="bold" lengthAdjust="spacing" textLength="108" x="631.5" y="508.5488">バックエンド</text><line style="stroke:#191919;stroke-width:1.0;" x1="618.5" x2="752.5" y1="517.3457" y2="517.3457"/><text fill="#F9F9F9" font-family="monospace" font-size="14" lengthAdjust="spacing" textLength="120" x="625.5" y="535.3408">Served on Flask</text><polygon fill="#191919" points="373.5,108.7988,383.5,112.7988,373.5,116.7988,377.5,112.7988" style="stroke:#191919;stroke-width:1.0;"/><line style="stroke:#191919;stroke-width:1.0;" x1="23.5" x2="379.5" y1="112.7988" y2="112.7988"/><text fill="#000000" font-family="sans-serif" font-size="13" font-weight="bold" lengthAdjust="spacing" textLength="9" x="30.5" y="108.0566">1</text><text fill="#000000" font-family="sans-serif" font-size="13" lengthAdjust="spacing" textLength="280" x="43.5" y="108.0566">http://localhost:8080/satori/juliaにアクセス</text><polygon fill="#191919" points="396.5,184.041,386.5,188.041,396.5,192.041,392.5,188.041" style="stroke:#191919;stroke-width:1.0;"/><line style="stroke:#191919;stroke-width:1.0;" x1="390.5" x2="684.5" y1="188.041" y2="188.041"/><text fill="#000000" font-family="sans-serif" font-size="13" font-weight="bold" lengthAdjust="spacing" textLength="9" x="402.5" y="160.333">2</text><text fill="#000000" font-family="sans-serif" font-size="13" lengthAdjust="spacing" textLength="130" x="415.5" y="137.3672">以下のファイルを送信</text><text fill="#000000" font-family="sans-serif" font-size="13" lengthAdjust="spacing" textLength="80" x="415.5" y="152.6777">- index.html</text><text fill="#000000" font-family="sans-serif" font-size="13" lengthAdjust="spacing" textLength="82" x="415.5" y="167.9883">- myscript.js</text><text fill="#000000" font-family="sans-serif" font-size="13" lengthAdjust="spacing" textLength="86" x="415.5" y="183.2988">- mystyle.css</text><line style="stroke:#191919;stroke-width:1.0;" x1="385.5" x2="427.5" y1="217.3516" y2="217.3516"/><line style="stroke:#191919;stroke-width:1.0;" x1="427.5" x2="427.5" y1="217.3516" y2="230.3516"/><line style="stroke:#191919;stroke-width:1.0;" x1="386.5" x2="427.5" y1="230.3516" y2="230.3516"/><polygon fill="#191919" points="396.5,226.3516,386.5,230.3516,396.5,234.3516,392.5,230.3516" style="stroke:#191919;stroke-width:1.0;"/><text fill="#000000" font-family="sans-serif" font-size="13" font-weight="bold" lengthAdjust="spacing" textLength="9" x="392.5" y="212.6094">3</text><text fill="#000000" font-family="sans-serif" font-size="13" lengthAdjust="spacing" textLength="117" x="405.5" y="212.6094">入力フォームを表示</text><polygon fill="#191919" points="373.5,255.6621,383.5,259.6621,373.5,263.6621,377.5,259.6621" style="stroke:#191919;stroke-width:1.0;"/><line style="stroke:#191919;stroke-width:1.0;" x1="23.5" x2="379.5" y1="259.6621" y2="259.6621"/><text fill="#000000" font-family="sans-serif" font-size="13" font-weight="bold" lengthAdjust="spacing" textLength="9" x="30.5" y="254.9199">4</text><text fill="#000000" font-family="sans-serif" font-size="13" lengthAdjust="spacing" textLength="325" x="43.5" y="254.9199">フォームを入力し「ジュリアセットを描画」をクリック</text><path d="M309,274.6621 L384.5,274.6621 L384.5,281.9727 L374.5,291.9727 L305.5,291.9727 L305.5,278.1621 A3.5,3.5 0 0 1 309,274.6621 " fill="#EEEEEE" style="stroke:#393939;stroke-width:1.5;"/><rect fill="none" height="164.1738" rx="3.5" ry="3.5" style="stroke:#393939;stroke-width:1.0;" width="457" x="305.5" y="274.6621"/><text fill="#191919" font-family="sans-serif" font-size="13" font-weight="bold" lengthAdjust="spacing" textLength="34" x="320.5" y="288.2305">AJAX</text><polygon fill="#191919" points="673.5,309.2832,683.5,313.2832,673.5,317.2832,677.5,313.2832" style="stroke:#191919;stroke-width:1.0;"/><line style="stroke:#191919;stroke-width:1.0;" x1="385.5" x2="679.5" y1="313.2832" y2="313.2832"/><text fill="#000000" font-family="sans-serif" font-size="13" font-weight="bold" lengthAdjust="spacing" textLength="9" x="392.5" y="308.541">5</text><text fill="#000000" font-family="sans-serif" font-size="13" lengthAdjust="spacing" textLength="130" x="405.5" y="308.541">フォームの入力を送信</text><polygon fill="#191919" points="396.5,384.5254,386.5,388.5254,396.5,392.5254,392.5,388.5254" style="stroke:#191919;stroke-width:1.0;"/><line style="stroke:#191919;stroke-width:1.0;" x1="390.5" x2="684.5" y1="388.5254" y2="388.5254"/><text fill="#000000" font-family="sans-serif" font-size="13" font-weight="bold" lengthAdjust="spacing" textLength="9" x="402.5" y="360.8174">6</text><text fill="#000000" font-family="sans-serif" font-size="13" lengthAdjust="spacing" textLength="148" x="415.5" y="337.8516">以下のJSONデータを送信</text><text fill="#000000" font-family="sans-serif" font-size="13" lengthAdjust="spacing" textLength="103" x="415.5" y="353.1621">- ジュリアセット</text><text fill="#000000" font-family="sans-serif" font-size="13" lengthAdjust="spacing" textLength="90" x="415.5" y="368.4727">- カラーバー　</text><text fill="#000000" font-family="sans-serif" font-size="13" lengthAdjust="spacing" textLength="116" x="415.5" y="383.7832">- グラフの幅、高さ</text><line style="stroke:#191919;stroke-width:1.0;" x1="385.5" x2="427.5" y1="417.8359" y2="417.8359"/><line style="stroke:#191919;stroke-width:1.0;" x1="427.5" x2="427.5" y1="417.8359" y2="430.8359"/><line style="stroke:#191919;stroke-width:1.0;" x1="386.5" x2="427.5" y1="430.8359" y2="430.8359"/><polygon fill="#191919" points="396.5,426.8359,386.5,430.8359,396.5,434.8359,392.5,430.8359" style="stroke:#191919;stroke-width:1.0;"/><text fill="#000000" font-family="sans-serif" font-size="13" font-weight="bold" lengthAdjust="spacing" textLength="9" x="392.5" y="413.0938">7</text><text fill="#000000" font-family="sans-serif" font-size="13" lengthAdjust="spacing" textLength="273" x="405.5" y="413.0938">ジュリアセットを表現するグラフの描画と表示</text><polygon fill="#191919" points="373.5,463.1465,383.5,467.1465,373.5,471.1465,377.5,467.1465" style="stroke:#191919;stroke-width:1.0;"/><line style="stroke:#191919;stroke-width:1.0;" x1="23.5" x2="379.5" y1="467.1465" y2="467.1465"/><text fill="#000000" font-family="sans-serif" font-size="13" font-weight="bold" lengthAdjust="spacing" textLength="9" x="30.5" y="462.4043">8</text><text fill="#000000" font-family="sans-serif" font-size="13" lengthAdjust="spacing" textLength="212" x="43.5" y="462.4043">結果を満足する=) or 5に再生成する</text><!--SRC=[bLDDRzD04BtxLoovSR3T2r8LKQHUUkW13XKI4d3OEjlQnL_QNGEzsLuL2gLAL3M22WG4DL8WeY1LeBP1zCTCFjf_mQvjFXhS5FPWpUnutinxpxxa-9ORrGYoEGzPrJGfVc0iEzoE5YD6g1NudFZSi0BFN8fuH8cEgMKxd5ZS32FFrRbDFC9C3pDEg5balokwXoapLAvXYmSKtPIeMeWfTomdn3v789eWFeBO1x4EQISBdjpMa3mpfRMifCkJ1PNA0g7tIGq5FffpCRjNgMXtnmOqG0X8F_sDFbxu5sWSyS2Fl4L9Gt51-hLo2gYQQIebTGCBktR0U7LwQdhAP5Zgu9WhaUjWIBgGlijMw45wg9KZNTLBI4ZyVg_TFzY0P4-rfIr8Tq58lAtJEEaVj-xuEdBy6dbesDnpLUQjCeiw8JTMM97oLPSO5cFd39x0RR3M7ZnzcGr-3-8RYBToy4chCzezkb2NiQu2AdaEyJD83q2qGNp8PEafpgftQrYlZxPx46_AMAaWNyZaq9Pf48LeTdxsrYGE9UATMIBPAvRuAPvMqZE1qIydvXTkN0VnMC6cnsUiA6MM5xeWyaKQwXd7-UtdxBQfTZjSWpWvxRw0fFd_JfqdgJAh_XsI7KWt_fnMI9rq2ZU9NzEq2pqTVMaCNxzIJXt59r_tSzYPoqZ-ybVaLpvuj3dQVZDSR-I57m00]--></g></svg>